<svg width="535" height="120" viewBox="0 0 535 120" xmlns="http://www.w3.org/2000/svg">
  <defs>
    <linearGradient id="spectrum" x1="0" y1="1" x2="1" y2="0">
      <stop offset="0" stop-color="#2DD4BF"/>
      <stop offset="0.45" stop-color="#6366F1"/>
      <stop offset="1" stop-color="#E879F9"/>
    </linearGradient>
    <linearGradient id="glassFill" x1="0" y1="0" x2="1" y2="1">
      <stop offset="0" stop-color="#ffffff" stop-opacity="0.20"/>
      <stop offset="1" stop-color="#a5b4fc" stop-opacity="0.06"/>
    </linearGradient>
    <linearGradient id="sheen" x1="0" y1="0" x2="1" y2="1">
      <stop offset="0" stop-color="#ffffff" stop-opacity="0.5"/>
      <stop offset="0.42" stop-color="#ffffff" stop-opacity="0"/>
    </linearGradient>
  </defs>
  <g transform="translate(0,0) scale(0.375)"><g transform="translate(12,12)">
    <rect width="256" height="256" rx="62" fill="#eceefb" stroke="#1e2440" stroke-opacity="0.1" stroke-width="2"/>
    <path d="M0 62 Q0 0 62 0 L156 0 Q66 30 34 156 L0 200 Z" fill="rgba(255,255,255,0.75)"/>
    
    <rect x="86" y="48" width="42" height="160" rx="21" transform="rotate(20 107 128)" fill="url(#spectrum)"/>
    <rect x="150" y="150" width="22" height="60" rx="11" fill="#1e2440" fill-opacity="0.88"/>
  </g></g>
  <g fill="#1e2440">
    <g transform="translate(132,84) scale(0.7175)"><path d="M29.11 21.19 Q19.44 21.19 13.55 17.50 Q7.67 13.81 6.30 6.98 L20.02 5.38 Q20.75 8.55 23.17 10.34 Q25.59 12.16 29.50 12.16 Q35.20 12.16 37.84 8.64 Q40.48 5.12 40.48 -1.81 L40.48 -4.59 L40.58 -9.81 L40.48 -9.81 Q35.94 -0.09 23.48 -0.09 Q14.27 -0.09 9.19 -7.03 Q4.11 -13.97 4.11 -26.86 Q4.11 -39.80 9.33 -46.83 Q14.55 -53.86 24.52 -53.86 Q36.03 -53.86 40.48 -44.34 L40.72 -44.34 Q40.72 -46.05 40.94 -48.97 Q41.16 -51.91 41.41 -52.83 L54.39 -52.83 Q54.11 -47.56 54.11 -40.62 L54.11 -1.61 Q54.11 9.67 47.70 15.42 Q41.31 21.19 29.11 21.19 Z M40.58 -27.16 Q40.58 -35.30 37.67 -39.86 Q34.77 -44.44 29.39 -44.44 Q18.41 -44.44 18.41 -26.86 Q18.41 -9.62 29.30 -9.62 Q34.77 -9.62 37.67 -14.19 Q40.58 -18.75 40.58 -27.16 Z M68.07 -0.00 L68.07 -72.47 L81.79 -72.47 L81.79 -0.00 L68.07 -0.00 Z M108.05 0.98 Q100.40 0.98 96.10 -3.19 Q91.80 -7.38 91.80 -14.94 Q91.80 -23.14 97.15 -27.44 Q102.49 -31.73 112.65 -31.84 L124.02 -32.03 L124.02 -34.72 Q124.02 -39.89 122.21 -42.41 Q120.41 -44.92 116.30 -44.92 Q112.51 -44.92 110.71 -43.19 Q108.93 -41.45 108.49 -37.45 L94.20 -38.14 Q95.51 -45.84 101.24 -49.83 Q106.98 -53.81 116.90 -53.81 Q126.90 -53.81 132.32 -48.88 Q137.74 -43.95 137.74 -34.86 L137.74 -15.62 Q137.74 -11.19 138.74 -9.50 Q139.74 -7.81 142.09 -7.81 Q143.65 -7.81 145.12 -8.11 L145.12 -0.69 Q143.90 -0.39 142.91 -0.14 Q141.95 0.09 140.96 0.23 Q139.99 0.39 138.88 0.48 Q137.79 0.59 136.34 0.59 Q131.15 0.59 128.68 -1.95 Q126.23 -4.50 125.73 -9.42 L125.45 -9.42 Q119.68 0.98 108.05 0.98 Z M124.02 -24.47 L116.99 -24.36 Q112.21 -24.17 110.21 -23.31 Q108.21 -22.47 107.15 -20.70 Q106.10 -18.95 106.10 -16.02 Q106.10 -12.25 107.84 -10.42 Q109.57 -8.59 112.45 -8.59 Q115.68 -8.59 118.34 -10.34 Q120.99 -12.11 122.51 -15.20 Q124.02 -18.31 124.02 -21.78 L124.02 -24.47 Z M196.00 -15.44 Q196.00 -7.77 189.72 -3.39 Q183.45 0.98 172.36 0.98 Q161.48 0.98 155.69 -2.45 Q149.90 -5.91 148.00 -13.19 L160.06 -14.98 Q161.09 -11.23 163.59 -9.67 Q166.11 -8.11 172.36 -8.11 Q178.12 -8.11 180.76 -9.56 Q183.40 -11.03 183.40 -14.16 Q183.40 -16.70 181.28 -18.19 Q179.15 -19.67 174.08 -20.70 Q162.45 -23.00 158.39 -24.97 Q154.34 -26.95 152.22 -30.09 Q150.09 -33.25 150.09 -37.84 Q150.09 -45.41 155.92 -49.62 Q161.76 -53.86 172.47 -53.86 Q181.89 -53.86 187.62 -50.19 Q193.36 -46.53 194.78 -39.59 L182.62 -38.33 Q182.03 -41.55 179.73 -43.14 Q177.44 -44.73 172.47 -44.73 Q167.58 -44.73 165.14 -43.48 Q162.70 -42.23 162.70 -39.31 Q162.70 -37.02 164.58 -35.67 Q166.45 -34.33 170.90 -33.45 Q177.11 -32.17 181.90 -30.83 Q186.72 -29.50 189.62 -27.64 Q192.53 -25.78 194.26 -22.88 Q196.00 -19.97 196.00 -15.44 Z M251.61 -15.44 Q251.61 -7.77 245.33 -3.39 Q239.07 0.98 227.97 0.98 Q217.10 0.98 211.30 -2.45 Q205.52 -5.91 203.61 -13.19 L215.68 -14.98 Q216.71 -11.23 219.21 -9.67 Q221.72 -8.11 227.97 -8.11 Q233.74 -8.11 236.38 -9.56 Q239.02 -11.03 239.02 -14.16 Q239.02 -16.70 236.89 -18.19 Q234.77 -19.67 229.69 -20.70 Q218.07 -23.00 214.00 -24.97 Q209.96 -26.95 207.83 -30.09 Q205.71 -33.25 205.71 -37.84 Q205.71 -45.41 211.54 -49.62 Q217.38 -53.86 228.08 -53.86 Q237.50 -53.86 243.24 -50.19 Q248.97 -46.53 250.39 -39.59 L238.24 -38.33 Q237.64 -41.55 235.35 -43.14 Q233.05 -44.73 228.08 -44.73 Q223.19 -44.73 220.75 -43.48 Q218.32 -42.23 218.32 -39.31 Q218.32 -37.02 220.19 -35.67 Q222.07 -34.33 226.52 -33.45 Q232.72 -32.17 237.52 -30.83 Q242.33 -29.50 245.24 -27.64 Q248.14 -25.78 249.88 -22.88 Q251.61 -19.97 251.61 -15.44 Z"/></g>
    <g transform="translate(332.5,84) scale(0.7175)" fill-opacity="0.55"><path d="M13.48 -24.56 Q13.48 -15.48 17.23 -10.55 Q21.00 -5.61 28.22 -5.61 Q33.94 -5.61 37.38 -7.91 Q40.83 -10.20 42.05 -13.72 L49.75 -11.53 Q45.02 0.98 28.22 0.98 Q16.50 0.98 10.38 -6.00 Q4.25 -12.98 4.25 -26.77 Q4.25 -39.84 10.38 -46.83 Q16.50 -53.81 27.88 -53.81 Q51.17 -53.81 51.17 -25.73 L51.17 -24.56 L13.48 -24.56 Z M42.09 -31.30 Q41.36 -39.66 37.84 -43.48 Q34.33 -47.31 27.73 -47.31 Q21.34 -47.31 17.61 -43.03 Q13.88 -38.77 13.58 -31.30 L42.09 -31.30 Z M95.71 -8.50 Q93.26 -3.42 89.22 -1.22 Q85.21 0.98 79.26 0.98 Q69.24 0.98 64.52 -5.75 Q59.82 -12.50 59.82 -26.17 Q59.82 -53.81 79.26 -53.81 Q85.26 -53.81 89.26 -51.61 Q93.26 -49.42 95.71 -44.62 L95.80 -44.62 L95.71 -50.53 L95.71 -72.47 L104.49 -72.47 L104.49 -10.89 Q104.49 -2.64 104.79 -0.00 L96.38 -0.00 Q96.24 -0.78 96.07 -3.61 Q95.90 -6.45 95.90 -8.50 L95.71 -8.50 Z M69.04 -26.47 Q69.04 -15.38 71.96 -10.59 Q74.90 -5.81 81.49 -5.81 Q88.96 -5.81 92.33 -10.98 Q95.71 -16.16 95.71 -27.05 Q95.71 -37.55 92.33 -42.42 Q88.96 -47.31 81.60 -47.31 Q74.96 -47.31 71.99 -42.41 Q69.04 -37.50 69.04 -26.47 Z M117.92 -64.06 L117.92 -72.47 L126.71 -72.47 L126.71 -64.06 L117.92 -64.06 Z M117.92 -0.00 L117.92 -52.83 L126.71 -52.83 L126.71 -0.00 L117.92 -0.00 Z M160.49 -0.39 Q156.15 0.78 151.62 0.78 Q141.07 0.78 141.07 -11.19 L141.07 -46.44 L134.96 -46.44 L134.96 -52.83 L141.40 -52.83 L143.99 -64.66 L149.85 -64.66 L149.85 -52.83 L159.62 -52.83 L159.62 -46.44 L149.85 -46.44 L149.85 -13.09 Q149.85 -9.28 151.09 -7.73 Q152.34 -6.20 155.42 -6.20 Q157.18 -6.20 160.49 -6.89 L160.49 -0.39 Z M212.65 -26.47 Q212.65 -12.59 206.54 -5.80 Q200.43 0.98 188.82 0.98 Q177.25 0.98 171.34 -6.08 Q165.43 -13.14 165.43 -26.47 Q165.43 -53.81 189.11 -53.81 Q201.21 -53.81 206.93 -47.14 Q212.65 -40.48 212.65 -26.47 Z M203.42 -26.47 Q203.42 -37.41 200.17 -42.36 Q196.92 -47.31 189.26 -47.31 Q181.54 -47.31 178.09 -42.25 Q174.65 -37.20 174.65 -26.47 Q174.65 -16.02 178.04 -10.77 Q181.45 -5.52 188.71 -5.52 Q196.64 -5.52 200.03 -10.59 Q203.42 -15.67 203.42 -26.47 Z M223.78 -0.00 L223.78 -40.53 Q223.78 -46.09 223.49 -52.83 L231.78 -52.83 Q232.17 -43.84 232.17 -42.05 L232.38 -42.05 Q234.47 -48.83 237.21 -51.31 Q239.94 -53.81 244.92 -53.81 Q246.67 -53.81 248.49 -53.33 L248.49 -45.27 Q246.74 -45.75 243.80 -45.75 Q238.33 -45.75 235.44 -41.03 Q232.56 -36.33 232.56 -27.55 L232.56 -0.00 L223.78 -0.00 Z"/></g>
  </g>
</svg>